<svg width="64" height="64" viewBox="0 0 64 64" fill="none" xmlns="http://www.w3.org/2000/svg">
    <path d="M28 20V38L38 28V23L44 16.5H50V28H38V36H50V56H60V8H40L38 10L28 20Z" fill="black"/>
    <path d="M38 56V40L28 50.3226V56H38Z" fill="black"/>
    <path d="M28 38L19.5 47L13 38V8H4V40L15 56H22.5L28 50.3226M28 38V8M28 38V20M28 38L38 28M28 50.3226L38 40M28 50.3226V56H38M28 8H38V10M28 8V20M28 20L38 10M38 28V36M38 28H50V16.5H44L38 23V28ZM38 10L40 8H60V56H50V36H38M38 40V56M38 40V36M38 56V36"
          stroke="black"/>
</svg>
